<svg height="144pt" preserveAspectRatio="xMidYMid meet" viewBox="0 0 144 144" width="144pt" xmlns="http://www.w3.org/2000/svg"><path d="m0 720v-720h720 720v720 720h-720-720zm401 615c-43-49-61-88-68-146-3-27-9-49-12-49-6 0-131 213-131 224 0 3 54 6 121 6h121zm220-38c116-61 248-310 220-415-26-95-144-140-246-93-57 25-135 115-180 207-65 132-53 243 35 301 45 31 112 31 171 0zm-292-409c44-72 78-135 75-140-3-4-14-8-25-8s-37-9-59-20c-163-83-195-255-75-398 42-50 105-75 179-70 57 3 78 12 259 112 174 97 195 111 186 127-12 23-21 24-60 3-61-31-76-21-161 116-43 69-78 128-78 132s19 1 41-7c57-20 145-19 195 4 22 10 60 41 85 69l44 51 149-255c91-157 145-259 139-265-21-21-316-188-324-184-4 3-18 23-30 45-23 41-39 44-39 7 0-12-11-46-25-75l-24-52h-356-355v445 445l28 12c28 11 119 36 139 37 6 1 47-58 92-131z" transform="matrix(.1 0 0 -.1 0 144)"/></svg>