<?xml version="1.0" standalone="no"?>
<!DOCTYPE svg PUBLIC "-//W3C//DTD SVG 20010904//EN"
 "http://www.w3.org/TR/2001/REC-SVG-20010904/DTD/svg10.dtd">
<svg version="1.0" xmlns="http://www.w3.org/2000/svg"
 width="144.000000pt" height="144.000000pt" viewBox="0 0 144.000000 144.000000"
 preserveAspectRatio="xMidYMid meet">
<metadata>
Created by potrace 1.11, written by Peter Selinger 2001-2013
</metadata>
<g transform="translate(0.000000,144.000000) scale(0.100000,-0.100000)"
fill="#000000" stroke="none">
<path d="M0 720 l0 -720 720 0 720 0 0 720 0 720 -720 0 -720 0 0 -720z m401
615 c-43 -49 -61 -88 -68 -146 -3 -27 -9 -49 -12 -49 -6 0 -131 213 -131 224
0 3 54 6 121 6 l121 0 -31 -35z m220 -38 c116 -61 248 -310 220 -415 -26 -95
-144 -140 -246 -93 -57 25 -135 115 -180 207 -65 132 -53 243 35 301 45 31
112 31 171 0z m-292 -409 c44 -72 78 -135 75 -140 -3 -4 -14 -8 -25 -8 -11 0
-37 -9 -59 -20 -163 -83 -195 -255 -75 -398 42 -50 105 -75 179 -70 57 3 78
12 259 112 174 97 195 111 186 127 -12 23 -21 24 -60 3 -61 -31 -76 -21 -161
116 -43 69 -78 128 -78 132 0 4 19 1 41 -7 57 -20 145 -19 195 4 22 10 60 41
85 69 l44 51 149 -255 c91 -157 145 -259 139 -265 -21 -21 -316 -188 -324
-184 -4 3 -18 23 -30 45 -23 41 -39 44 -39 7 0 -12 -11 -46 -25 -75 l-24 -52
-356 0 -355 0 0 445 0 445 28 12 c28 11 119 36 139 37 6 1 47 -58 92 -131z"/>
</g>
</svg>
